<svg width="119" height="38" viewBox="0 0 119 38" fill="none" xmlns="http://www.w3.org/2000/svg">
<path fill-rule="evenodd" clip-rule="evenodd" d="M0.0475521 1.02799C-0.0116359 1.05182 -0.0176952 36.5229 0.0413872 36.9519C0.0622439 37.1031 0.0947256 37.2426 0.113645 37.262C0.154407 37.3036 36.2231 37.2914 36.265 37.2497C36.2796 37.2351 36.2875 29.078 36.2826 19.1228L36.2738 1.0223L18.1827 1.01625C8.23259 1.01295 0.0717911 1.01822 0.0475521 1.02799ZM30.1618 19.0871C30.1608 20.6517 30.1563 21.9347 30.1518 21.9381C30.1473 21.9416 24.7573 21.9543 18.1739 21.9665L6.20417 21.9886V16.237L30.1637 16.2423L30.1618 19.0871Z" fill="white"/>
<path d="M104.525 37C103.811 37 103.16 36.8413 102.573 36.5239C102.002 36.2065 101.549 35.7621 101.216 35.1907C100.883 34.6035 100.716 33.9131 100.716 33.1195V27.1441H98.7164V25.5967C99.4941 25.3269 100.129 24.827 100.621 24.0969C101.129 23.3668 101.573 22.4543 101.954 21.3592H103.74V24.6206H107.358V27.1441H103.74V32.3339C103.74 32.8735 103.874 33.3021 104.144 33.6195C104.43 33.921 104.843 34.0718 105.382 34.0718C105.858 34.0718 106.271 34.0004 106.62 33.8575C106.969 33.7147 107.279 33.5639 107.549 33.4052V35.9763C107.263 36.2779 106.858 36.5239 106.334 36.7143C105.827 36.9048 105.223 37 104.525 37Z" fill="white"/>
<path d="M92.2106 37C91.3218 37 90.4886 36.8492 89.7109 36.5477C88.9332 36.2303 88.2428 35.7938 87.6397 35.2383C87.0525 34.6828 86.5922 34.0242 86.2589 33.2624C85.9257 32.5006 85.759 31.6674 85.759 30.7627C85.759 29.5883 86.0209 28.517 86.5446 27.5488C87.0684 26.5648 87.7905 25.7792 88.711 25.192C89.6315 24.6048 90.679 24.3112 91.8535 24.3112C93.0279 24.3112 94.0357 24.5651 94.8769 25.073C95.7339 25.5808 96.3846 26.2871 96.829 27.1917C97.2893 28.0805 97.5194 29.1121 97.5194 30.2866V31.5721H88.5444V29.501H94.615C94.5833 28.9137 94.4246 28.4376 94.1389 28.0726C93.8532 27.6917 93.504 27.4139 93.0914 27.2394C92.6787 27.0489 92.2423 26.9537 91.782 26.9537C91.1631 26.9537 90.6235 27.1124 90.1632 27.4298C89.7188 27.7472 89.3697 28.1916 89.1157 28.763C88.8618 29.3343 88.7348 30.0009 88.7348 30.7627C88.7348 31.4452 88.8856 32.0483 89.1871 32.572C89.4887 33.0957 89.9093 33.5084 90.4489 33.8099C91.0044 34.1115 91.6313 34.2623 92.3296 34.2623C93.2184 34.2623 94.0119 34.0877 94.7102 33.7385C95.4244 33.3894 95.9878 33.0323 96.4005 32.6672V35.4764C96.1624 35.6986 95.8291 35.9287 95.4006 36.1668C94.9721 36.4048 94.4801 36.6032 93.9246 36.7619C93.385 36.9206 92.8137 37 92.2106 37Z" fill="white"/>
<path d="M79.2532 37C78.3644 37 77.5312 36.8492 76.7535 36.5477C75.9758 36.2303 75.2854 35.7938 74.6823 35.2383C74.0951 34.6828 73.6348 34.0242 73.3016 33.2624C72.9683 32.5006 72.8016 31.6674 72.8016 30.7627C72.8016 29.5883 73.0635 28.517 73.5872 27.5488C74.111 26.5648 74.8331 25.7792 75.7536 25.192C76.6741 24.6048 77.7216 24.3112 78.8961 24.3112C80.0705 24.3112 81.0783 24.5651 81.9195 25.073C82.7765 25.5808 83.4272 26.2871 83.8716 27.1917C84.3319 28.0805 84.562 29.1121 84.562 30.2866V31.5721H75.587V29.501H81.6576C81.6259 28.9137 81.4672 28.4376 81.1815 28.0726C80.8958 27.6917 80.5467 27.4139 80.134 27.2394C79.7214 27.0489 79.2849 26.9537 78.8247 26.9537C78.2057 26.9537 77.6661 27.1124 77.2058 27.4298C76.7614 27.7472 76.4123 28.1916 76.1583 28.763C75.9044 29.3343 75.7774 30.0009 75.7774 30.7627C75.7774 31.4452 75.9282 32.0483 76.2298 32.572C76.5313 33.0957 76.9519 33.5084 77.4915 33.8099C78.047 34.1115 78.6739 34.2623 79.3722 34.2623C80.261 34.2623 81.0545 34.0877 81.7529 33.7385C82.467 33.3894 83.0305 33.0323 83.4431 32.6672V35.4764C83.205 35.6986 82.8718 35.9287 82.4432 36.1668C82.0147 36.4048 81.5227 36.6032 80.9672 36.7619C80.4276 36.9206 79.8563 37 79.2532 37Z" fill="white"/>
<path d="M64.4627 36.6429V24.6206H67.4861V36.6429H64.4627ZM67.4861 29.9295V26.8823C67.8988 26.1681 68.3828 25.5729 68.9383 25.0968C69.5097 24.6206 70.1524 24.3826 70.8666 24.3826C71.311 24.3826 71.6999 24.454 72.0331 24.5968V28.0012C71.7951 27.8583 71.5411 27.7552 71.2713 27.6917C71.0174 27.6123 70.7397 27.5726 70.4381 27.5726C69.7557 27.5726 69.1764 27.8028 68.7002 28.263C68.24 28.7074 67.8353 29.2629 67.4861 29.9295Z" fill="white"/>
<path d="M59.0758 37C58.3616 37 57.7109 36.8413 57.1236 36.5239C56.5523 36.2065 56.1 35.7621 55.7667 35.1907C55.4334 34.6035 55.2667 33.9131 55.2667 33.1195V27.1441H53.267V25.5967C54.0447 25.3269 54.6795 24.827 55.1715 24.0969C55.6794 23.3668 56.1238 22.4543 56.5047 21.3592H58.2902V24.6206H61.9087V27.1441H58.2902V32.3339C58.2902 32.8735 58.4251 33.3021 58.6949 33.6195C58.9805 33.921 59.3932 34.0718 59.9328 34.0718C60.4089 34.0718 60.8216 34.0004 61.1707 33.8575C61.5199 33.7147 61.8294 33.5639 62.0992 33.4052V35.9763C61.8135 36.2779 61.4088 36.5239 60.8851 36.7143C60.3772 36.9048 59.7741 37 59.0758 37Z" fill="white"/>
<path d="M45.9756 36.9286C45.0392 36.9286 44.1425 36.7699 43.2854 36.4525C42.4284 36.1192 41.6825 35.7303 41.0476 35.2859V32.1435C41.7459 32.6514 42.5315 33.0799 43.4045 33.429C44.2932 33.7782 45.2137 33.9528 46.166 33.9528C46.8326 33.9528 47.3801 33.802 47.8086 33.5005C48.253 33.1989 48.4752 32.7863 48.4752 32.2625C48.4752 31.9927 48.38 31.7546 48.1896 31.5483C48.015 31.3261 47.7848 31.1357 47.4992 30.977C47.2294 30.8024 46.9357 30.6595 46.6183 30.5485L44.1663 29.5962C43.341 29.2788 42.6982 28.8979 42.2379 28.4535C41.7777 28.0091 41.4523 27.5171 41.2619 26.9775C41.0873 26.422 41 25.8348 41 25.2158C41 24.2318 41.2619 23.3827 41.7856 22.6685C42.3252 21.9384 43.0235 21.375 43.8806 20.9783C44.7535 20.5815 45.6819 20.3831 46.6659 20.3831C47.6023 20.3831 48.4514 20.5101 49.2132 20.764C49.975 21.0179 50.6099 21.3115 51.1177 21.6448V24.7873C50.5464 24.4223 49.9116 24.0969 49.2132 23.8112C48.5308 23.5097 47.7769 23.3589 46.9516 23.3589C46.539 23.3589 46.1422 23.4303 45.7613 23.5732C45.3804 23.716 45.063 23.9223 44.809 24.1921C44.571 24.4619 44.4519 24.8032 44.4519 25.2158C44.4519 25.7395 44.6821 26.1443 45.1423 26.4299C45.6026 26.6997 46.166 26.9775 46.8326 27.2632L48.7371 28.0726C49.8639 28.5487 50.6892 29.1121 51.213 29.7628C51.7526 30.3977 52.0224 31.1754 52.0224 32.0959C52.0224 33.0481 51.7446 33.8893 51.1892 34.6194C50.6496 35.3335 49.9195 35.897 48.999 36.3096C48.0943 36.7223 47.0865 36.9286 45.9756 36.9286Z" fill="white"/>
<path d="M115.167 17.4977C114.452 17.4977 113.802 17.339 113.215 17.0216C112.643 16.7042 112.191 16.2598 111.858 15.6885C111.524 15.1012 111.358 14.4108 111.358 13.6173V7.64187H109.358V6.09445C110.136 5.82465 110.77 5.32471 111.262 4.59465C111.77 3.86458 112.215 2.952 112.596 1.8569H114.381V5.11839H118V7.64187H114.381V12.8317C114.381 13.3713 114.516 13.7998 114.786 14.1172C115.071 14.4188 115.484 14.5696 116.024 14.5696C116.5 14.5696 116.912 14.4981 117.262 14.3553C117.611 14.2125 117.92 14.0617 118.19 13.903V16.4741C117.904 16.7756 117.5 17.0216 116.976 17.2121C116.468 17.4025 115.865 17.4977 115.167 17.4977Z" fill="white"/>
<path d="M102.852 17.4977C101.963 17.4977 101.13 17.347 100.352 17.0454C99.5747 16.728 98.8843 16.2916 98.2812 15.7361C97.694 15.1806 97.2337 14.5219 96.9004 13.7601C96.5671 12.9983 96.4005 12.1651 96.4005 11.2605C96.4005 10.086 96.6624 9.01471 97.1861 8.04658C97.7098 7.06258 98.432 6.27697 99.3525 5.68974C100.273 5.10252 101.32 4.80891 102.495 4.80891C103.669 4.80891 104.677 5.06284 105.518 5.57071C106.375 6.07858 107.026 6.78484 107.47 7.68949C107.931 8.57826 108.161 9.60987 108.161 10.7843V12.0699H99.1858V9.99871H105.256C105.225 9.41149 105.066 8.93536 104.78 8.57033C104.495 8.18942 104.146 7.91168 103.733 7.7371C103.32 7.54665 102.884 7.45142 102.424 7.45142C101.805 7.45142 101.265 7.61013 100.805 7.92755C100.36 8.24497 100.011 8.68936 99.7572 9.26071C99.5033 9.83207 99.3763 10.4986 99.3763 11.2605C99.3763 11.9429 99.5271 12.546 99.8286 13.0697C100.13 13.5935 100.551 14.0061 101.09 14.3077C101.646 14.6092 102.273 14.76 102.971 14.76C103.86 14.76 104.653 14.5854 105.352 14.2363C106.066 13.8871 106.629 13.53 107.042 13.165V15.9741C106.804 16.1963 106.471 16.4265 106.042 16.6645C105.614 16.9026 105.122 17.101 104.566 17.2597C104.026 17.4184 103.455 17.4977 102.852 17.4977Z" fill="white"/>
<path d="M87.4188 14.3077V10.8557L92.8943 5.11839H96.5605L87.4188 14.3077ZM84.9667 17.1407V0H87.9901V17.1407H84.9667ZM93.0133 17.1407L88.8234 11.4509L90.7279 9.37975L96.8223 17.1407H93.0133Z" fill="white"/>
<path d="M75.7946 17.1406V5.11839H78.818V17.1406H75.7946ZM78.818 10.4272V7.38C79.2306 6.66581 79.7147 6.07065 80.2702 5.59452C80.8415 5.11839 81.4843 4.88032 82.1985 4.88032C82.6429 4.88032 83.0317 4.95174 83.365 5.09458V8.49891C83.127 8.35607 82.873 8.25291 82.6032 8.18942C82.3493 8.11007 82.0715 8.07039 81.77 8.07039C81.0875 8.07039 80.5082 8.30052 80.0321 8.76078C79.5719 9.20516 79.1672 9.76065 78.818 10.4272Z" fill="white"/>
<path d="M65.932 17.4977C64.9798 17.4977 64.091 17.2517 63.2657 16.7597C62.4563 16.2677 61.7976 15.5536 61.2898 14.6172C60.7978 13.6808 60.5518 12.546 60.5518 11.2128C60.5518 9.86381 60.7978 8.71316 61.2898 7.76091C61.7976 6.80865 62.4722 6.07858 63.3133 5.57071C64.1704 5.06284 65.1147 4.80891 66.1463 4.80891C66.8129 4.80891 67.4715 4.95968 68.1222 5.26123C68.7888 5.56278 69.3443 5.96749 69.7887 6.47536V5.11839H72.8121V17.1407H69.7887V15.1171C69.4395 15.7678 68.9316 16.3312 68.2651 16.8074C67.5985 17.2676 66.8208 17.4977 65.932 17.4977ZM66.6938 14.4743C67.2334 14.4743 67.7334 14.3315 68.1936 14.0458C68.6698 13.7601 69.0586 13.3554 69.3602 12.8317C69.6617 12.3079 69.8045 11.689 69.7887 10.9748V9.26071C69.3602 8.80045 68.892 8.43542 68.3841 8.16562C67.8921 7.89581 67.3525 7.76091 66.7653 7.76091C66.1304 7.76091 65.5829 7.92755 65.1226 8.26084C64.6782 8.57826 64.3291 8.99884 64.0751 9.52258C63.8212 10.0463 63.6942 10.6097 63.6942 11.2128C63.6942 11.8001 63.8212 12.3476 64.0751 12.8555C64.3291 13.3475 64.6782 13.7443 65.1226 14.0458C65.5829 14.3315 66.1066 14.4743 66.6938 14.4743Z" fill="white"/>
<path d="M42.1903 17.1407V1.07129H43.3092L50.1179 8.16562L56.8789 1.07129H57.9978V17.1407H54.6887V7.42762L50.594 11.9032H49.6417L45.4994 7.42762V17.1407H42.1903Z" fill="white"/>
</svg>
